<?xml version="1.0" encoding="UTF-8" standalone="no"?>
<svg width="13px" height="13px" viewBox="0 0 13 13" version="1.1" xmlns="http://www.w3.org/2000/svg" xmlns:xlink="http://www.w3.org/1999/xlink">
    <!-- Generator: Sketch 3.8.3 (29802) - http://www.bohemiancoding.com/sketch -->
    <title>payment icon</title>
    <desc>Created with Sketch.</desc>
    <defs></defs>
    <g id="Page-1" stroke="none" stroke-width="1" fill="none" fill-rule="evenodd">
        <path d="M6.5,13 C10.0898509,13 13,10.0898509 13,6.5 C13,2.91014913 10.0898509,0 6.5,0 C2.91014913,0 0,2.91014913 0,6.5 C0,10.0898509 2.91014913,13 6.5,13 Z M8.91183036,8.23716518 C8.91183036,8.74944453 8.74525836,9.19056735 8.41210937,9.56054688 C8.07896039,9.9305264 7.64620802,10.1590397 7.11383929,10.2460938 L7.11383929,11.125 C7.11383929,11.1718752 7.09877247,11.2103793 7.06863839,11.2405134 C7.03850431,11.2706475 7.00000023,11.2857143 6.953125,11.2857143 L6.27511161,11.2857143 C6.2315846,11.2857143 6.19391757,11.2698104 6.16210937,11.2380022 C6.13030118,11.206194 6.11439732,11.168527 6.11439732,11.125 L6.11439732,10.2460938 C5.89341407,10.2159597 5.67996755,10.1640629 5.47405134,10.0904018 C5.26813513,10.0167407 5.09821496,9.94224368 4.96428571,9.86690848 C4.83035647,9.79157328 4.70647378,9.71121694 4.59263393,9.62583705 C4.47879407,9.54045716 4.40094887,9.47767877 4.35909598,9.4375 C4.31724309,9.39732123 4.28794651,9.3671876 4.27120536,9.34709821 C4.21428543,9.27678536 4.21093725,9.20814766 4.26116071,9.14118304 L4.77845982,8.46316964 C4.80189744,8.42968733 4.84040152,8.40959825 4.89397321,8.40290179 C4.94419668,8.39620532 4.98437485,8.41127214 5.01450893,8.44810268 C5.01450893,8.44810268 5.01785711,8.45145086 5.02455357,8.45814732 C5.40290368,8.78962219 5.80970765,8.99888349 6.24497768,9.0859375 C6.36886223,9.11272335 6.49274492,9.12611607 6.61662946,9.12611607 C6.88783618,9.12611607 7.12639406,9.05413018 7.33231027,8.91015625 C7.53822648,8.76618232 7.64118304,8.56194329 7.64118304,8.29743304 C7.64118304,8.20368257 7.61607168,8.11495578 7.56584821,8.03125 C7.51562475,7.94754422 7.45954272,7.87723243 7.39760045,7.8203125 C7.33565817,7.76339257 7.23772388,7.70061418 7.10379464,7.63197545 C6.9698654,7.56333671 6.85937544,7.50976582 6.77232143,7.47126116 C6.68526742,7.4327565 6.55134019,7.37834857 6.37053571,7.30803571 C6.2399547,7.25446402 6.13699814,7.21261176 6.06166295,7.18247768 C5.98632775,7.1523436 5.88337119,7.1079802 5.75279018,7.04938616 C5.62220917,6.99079212 5.51757852,6.93889532 5.43889509,6.8936942 C5.36021166,6.84849308 5.26562555,6.78906287 5.15513393,6.71540179 C5.0446423,6.6417407 4.95507847,6.57059186 4.88643973,6.50195312 C4.817801,6.43331439 4.74497806,6.35128396 4.66796875,6.25585938 C4.59095944,6.16043479 4.53152923,6.06333755 4.48967634,5.96456473 C4.44782345,5.86579192 4.41266755,5.75446491 4.38420759,5.63058036 C4.35574763,5.50669581 4.34151786,5.37611676 4.34151786,5.23883929 C4.34151786,4.7767834 4.50557872,4.37165353 4.83370536,4.0234375 C5.161832,3.67522147 5.58872505,3.45089336 6.11439732,3.35044643 L6.11439732,2.44642857 C6.11439732,2.40290157 6.13030118,2.36523453 6.16210937,2.33342634 C6.19391757,2.30161814 6.2315846,2.28571429 6.27511161,2.28571429 L6.953125,2.28571429 C7.00000023,2.28571429 7.03850431,2.3007811 7.06863839,2.33091518 C7.09877247,2.36104926 7.11383929,2.39955334 7.11383929,2.44642857 L7.11383929,3.33035714 C7.30468845,3.35044653 7.48967544,3.38895061 7.6688058,3.44587054 C7.84793616,3.50279046 7.99358203,3.55887249 8.10574777,3.6141183 C8.21791351,3.66936412 8.32421825,3.73214251 8.42466518,3.80245536 C8.52511211,3.87276821 8.59040164,3.92131683 8.62053571,3.94810268 C8.65066979,3.97488853 8.67578115,3.99832579 8.69587054,4.01841518 C8.75279046,4.07868334 8.76116092,4.14229877 8.72098214,4.20926339 L8.31417411,4.94252232 C8.28738826,4.99274579 8.24888418,5.01953123 8.19866071,5.02287946 C8.15178548,5.03292416 8.10658504,5.02120552 8.06305804,4.98772321 C8.05301334,4.97767852 8.02873903,4.95758944 7.99023437,4.92745536 C7.95172972,4.89732128 7.88644019,4.85295788 7.79436384,4.79436384 C7.70228749,4.7357698 7.6043532,4.6821989 7.50055804,4.63364955 C7.39676287,4.5851002 7.27204314,4.54157385 7.12639509,4.5030692 C6.98074704,4.46456454 6.83761231,4.4453125 6.69698661,4.4453125 C6.37890466,4.4453125 6.11942065,4.51729839 5.91852679,4.66127232 C5.71763292,4.80524626 5.6171875,4.99107029 5.6171875,5.21875 C5.6171875,5.30580401 5.63141727,5.38616035 5.65987723,5.45982143 C5.6883372,5.53348251 5.73772286,5.60295726 5.80803571,5.66824777 C5.87834857,5.73353827 5.94447514,5.78878326 6.00641741,5.83398438 C6.06835968,5.87918549 6.16210875,5.9310823 6.28766741,5.98967634 C6.41322607,6.04827038 6.51450854,6.09347082 6.59151786,6.12527902 C6.66852717,6.15708721 6.7857135,6.2031247 6.94308036,6.26339286 C7.1205366,6.33035748 7.25613792,6.38309133 7.34988839,6.42159598 C7.44363886,6.46010064 7.57086973,6.5186938 7.73158482,6.59737723 C7.89229991,6.67606066 8.01869374,6.7472095 8.11077009,6.81082589 C8.20284644,6.87444228 8.30664005,6.9581468 8.42215402,7.06194196 C8.53766799,7.16573713 8.62639478,7.27204187 8.68833705,7.38085938 C8.75027933,7.48967688 8.80301318,7.6177448 8.84654018,7.76506696 C8.89006718,7.91238913 8.91183036,8.06975363 8.91183036,8.23716518 Z" id="payment-icon" fill="#999999"></path>
    </g>
</svg>