<?xml version="1.0" encoding="UTF-8" standalone="no"?>
<svg width="11px" height="12px" viewBox="0 0 11 12" version="1.1" xmlns="http://www.w3.org/2000/svg" xmlns:xlink="http://www.w3.org/1999/xlink">
    <!-- Generator: Sketch 3.8.3 (29802) - http://www.bohemiancoding.com/sketch -->
    <title>role icon</title>
    <desc>Created with Sketch.</desc>
    <defs></defs>
    <g id="Page-1" stroke="none" stroke-width="1" fill="none" fill-rule="evenodd">
        <path d="M11,9.9765625 C11,10.6015656 10.8098977,11.0950503 10.4296875,11.4570312 C10.0494773,11.8190122 9.54427398,12 8.9140625,12 L2.0859375,12 C1.45572602,12 0.950522734,11.8190122 0.5703125,11.4570312 C0.190102266,11.0950503 0,10.6015656 0,9.9765625 C0,9.70051945 0.00911449219,9.4309909 0.02734375,9.16796875 C0.0455730078,8.9049466 0.0820309766,8.62109527 0.13671875,8.31640625 C0.191406523,8.01171723 0.26041625,7.72916797 0.34375,7.46875 C0.42708375,7.20833203 0.539061797,6.95442832 0.6796875,6.70703125 C0.820313203,6.45963418 0.981769922,6.24869879 1.1640625,6.07421875 C1.34635508,5.89973871 1.5690091,5.76041719 1.83203125,5.65625 C2.0950534,5.55208281 2.38541508,5.5 2.703125,5.5 C2.75000023,5.5 2.85937414,5.55598902 3.03125,5.66796875 C3.20312586,5.77994848 3.39713434,5.90494723 3.61328125,6.04296875 C3.82942816,6.18099027 4.11067535,6.30598902 4.45703125,6.41796875 C4.80338715,6.52994848 5.15103992,6.5859375 5.5,6.5859375 C5.84896008,6.5859375 6.19661285,6.52994848 6.54296875,6.41796875 C6.88932465,6.30598902 7.17057184,6.18099027 7.38671875,6.04296875 C7.60286566,5.90494723 7.79687414,5.77994848 7.96875,5.66796875 C8.14062586,5.55598902 8.24999977,5.5 8.296875,5.5 C8.61458492,5.5 8.9049466,5.55208281 9.16796875,5.65625 C9.4309909,5.76041719 9.65364492,5.89973871 9.8359375,6.07421875 C10.0182301,6.24869879 10.1796868,6.45963418 10.3203125,6.70703125 C10.4609382,6.95442832 10.5729162,7.20833203 10.65625,7.46875 C10.7395838,7.72916797 10.8085935,8.01171723 10.8632812,8.31640625 C10.917969,8.62109527 10.954427,8.9049466 10.9726562,9.16796875 C10.9908855,9.4309909 11,9.70051945 11,9.9765625 L11,9.9765625 Z M8.5,3 C8.5,3.82812914 8.20703418,4.53515332 7.62109375,5.12109375 C7.03515332,5.70703418 6.32812914,6 5.5,6 C4.67187086,6 3.96484668,5.70703418 3.37890625,5.12109375 C2.79296582,4.53515332 2.5,3.82812914 2.5,3 C2.5,2.17187086 2.79296582,1.46484668 3.37890625,0.87890625 C3.96484668,0.29296582 4.67187086,0 5.5,0 C6.32812914,0 7.03515332,0.29296582 7.62109375,0.87890625 C8.20703418,1.46484668 8.5,2.17187086 8.5,3 L8.5,3 Z" id="role-icon" fill="#999999"></path>
    </g>
</svg>